<?xml version="1.0" standalone="no"?>
<!DOCTYPE svg PUBLIC "-//W3C//DTD SVG 20010904//EN"
"http://www.w3.org/TR/2001/REC-SVG-20010904/DTD/svg10.dtd">
<svg version="1.0" xmlns="http://www.w3.org/2000/svg"
     width="180.000000pt" height="180.000000pt" viewBox="0 0 180.000000 180.000000"
     preserveAspectRatio="xMidYMid meet">

	<g transform="translate(0.000000,180.000000) scale(0.100000,-0.100000)"
	   fill="#000000" stroke="none">
		<path d="M121 1787 c-46 -15 -94 -65 -109 -114 -17 -58 -17 -1488 0 -1546 16
-52 63 -99 115 -115 58 -17 1488 -17 1546 0 52 16 99 63 115 115 17 58 17
1488 0 1546 -16 52 -63 99 -115 115 -54 16 -1501 15 -1552 -1z m394 -887 l0
-485 -67 -3 -68 -3 0 491 0 491 68 -3 67 -3 0 -485z m905 425 l0 -65 -155 0
-155 0 -2 -422 -3 -423 -70 0 -70 0 -3 423 -2 422 -155 0 -155 0 0 65 0 65
385 0 385 0 0 -65z"/>
	</g>
</svg>